<?xml version="1.0" standalone="no"?>
<!DOCTYPE svg PUBLIC "-//W3C//DTD SVG 20010904//EN"
 "http://www.w3.org/TR/2001/REC-SVG-20010904/DTD/svg10.dtd">
<svg version="1.0" xmlns="http://www.w3.org/2000/svg"
 width="300.000000pt" height="300.000000pt" viewBox="0 0 300.000000 300.000000"
 preserveAspectRatio="xMidYMid meet">
<metadata>
Created by potrace 1.14, written by Peter Selinger 2001-2017
</metadata>
<g transform="translate(0.000000,300.000000) scale(0.100000,-0.100000)"
fill="#000000" stroke="none">
<path d="M1968 2518 l-3 -173 -465 0 -465 0 -3 58 -3 58 -75 35 c-41 19 -79
34 -84 34 -6 0 -10 5 -10 10 0 6 -6 10 -13 10 -6 0 -46 17 -87 37 l-75 37
-148 1 c-92 0 -151 -3 -156 -10 -4 -5 -7 -174 -7 -375 l1 -365 155 1 155 0 85
41 c47 23 124 59 172 81 l87 41 3 58 3 58 185 0 185 0 1 -327 0 -328 -93 0
-93 0 0 -32 c-1 -18 -2 -103 -3 -188 l-2 -155 -102 0 c-57 0 -103 4 -103 9 0
22 -54 116 -88 153 -77 82 -170 120 -292 119 l-65 -1 -1 -365 c-1 -201 1 -370
3 -376 6 -18 151 -6 215 17 96 35 173 113 218 220 l15 35 100 0 100 -1 2 -174
c1 -96 4 -179 7 -186 3 -8 32 -12 85 -12 45 0 84 -3 89 -7 4 -4 8 -85 9 -179
1 -95 2 -176 2 -182 1 -8 78 -11 171 -6 13 1 15 29 15 188 l0 187 93 -1 92 -1
0 66 c1 37 2 121 3 187 l2 120 108 1 c72 1 107 -2 108 -10 7 -113 81 -212 185
-248 251 -90 473 126 433 420 -18 127 -82 222 -183 272 -72 36 -145 44 -216
25 -127 -35 -192 -106 -215 -233 -2 -12 -6 -26 -9 -30 -4 -6 -151 -9 -203 -3
-9 1 -12 39 -12 144 0 78 0 161 -1 184 l0 42 -92 3 -93 3 0 325 0 325 185 0
185 0 3 -176 2 -177 78 47 c126 76 157 95 177 109 11 7 28 15 38 18 9 4 17 10
17 15 0 5 5 9 10 9 6 0 58 29 115 65 58 36 107 65 110 65 2 0 24 14 48 30 25
17 47 30 51 30 3 0 26 13 51 29 34 21 42 31 33 39 -19 14 -716 432 -722 432
-3 0 -7 -78 -8 -172z m-1222 -132 l99 -47 0 -87 0 -87 -104 -51 c-73 -36 -115
-51 -140 -50 l-36 1 -1 186 -1 187 42 -3 c25 -1 82 -21 141 -49z m1464 -51 c8
-6 43 -29 78 -49 l63 -38 -38 -20 c-21 -12 -62 -36 -91 -54 -29 -19 -56 -34
-60 -34 -5 0 -8 174 -3 212 1 9 31 -1 51 -17z m-645 -1024 l30 -1 -1 -272 c-1
-150 -2 -277 -3 -281 -1 -4 -42 -6 -93 -5 l-92 3 -1 265 c0 146 3 272 6 280 5
11 22 15 66 13 32 -1 72 -2 88 -2z m791 -107 c99 -47 107 -266 12 -337 -32
-24 -94 -29 -130 -11 -75 38 -104 185 -57 281 37 75 104 100 175 67z m-1543
-85 c29 -40 37 -92 22 -139 -8 -25 -63 -90 -77 -90 -4 0 -8 65 -8 145 0 136 1
144 18 134 9 -6 30 -28 45 -50z"/>
</g>
</svg>
